<svg width="57" height="57" viewBox="0 0 57 57" fill="none" xmlns="http://www.w3.org/2000/svg">
<path d="M43.414 4.83099H13C7.717 4.83099 3.419 9.12799 3.419 14.411V24.531V44.826C3.419 50.109 7.717 54.406 13 54.406H43.415C48.698 54.406 52.995 50.109 52.995 44.826V24.53V14.41C52.994 9.12699 48.697 4.83099 43.414 4.83099ZM46.162 10.544L47.258 10.54V11.631V18.943L38.883 18.97L38.854 10.568L46.162 10.544ZM21.131 24.53C22.719 22.333 25.295 20.892 28.207 20.892C31.119 20.892 33.695 22.333 35.281 24.53C36.314 25.964 36.933 27.718 36.933 29.618C36.933 34.429 33.015 38.343 28.206 38.343C23.394 38.343 19.48 34.429 19.48 29.618C19.481 27.718 20.098 25.964 21.131 24.53ZM48.164 44.825C48.164 47.446 46.033 49.575 43.414 49.575H13C10.38 49.575 8.249 47.446 8.249 44.825V24.53H15.649C15.01 26.102 14.651 27.819 14.651 29.618C14.651 37.091 20.731 43.175 28.207 43.175C35.682 43.175 41.762 37.091 41.762 29.618C41.762 27.819 41.401 26.102 40.762 24.53H48.164V44.825Z" fill="#001166"/>
</svg>
